<svg width="188" height="188" viewBox="0 0 188 188" fill="none" xmlns="http://www.w3.org/2000/svg">
<path d="M178.85 52.36H14.44" stroke="#E1F0F2" stroke-width="0.75" stroke-miterlimit="10"/>
<path d="M178.85 76.8099H14.44" stroke="#E1F0F2" stroke-width="0.75" stroke-miterlimit="10"/>
<path d="M178.85 101.25H14.44" stroke="#E1F0F2" stroke-width="0.75" stroke-miterlimit="10"/>
<path d="M178.85 125.69H14.44" stroke="#E1F0F2" stroke-width="0.75" stroke-miterlimit="10"/>
<path d="M178.85 150.14H14.44" stroke="#E1F0F2" stroke-width="0.75" stroke-miterlimit="10"/>
<path d="M185.2 168.66H3V40.17L5 40.19V166.66H185.2V168.66Z" fill="#09363F"/>
<path d="M34.81 106.63H26.84V139.3H34.81V106.63Z" fill="#30CFB0"/>
<path d="M32.16 90.2999H29.5V106.63H32.16V90.2999Z" fill="#A9EBDB"/>
<path d="M32.16 139.3H29.5V155.63H32.16V139.3Z" fill="#A9EBDB"/>
<path d="M53.16 110.58H45.19V143.25H53.16V110.58Z" fill="#30CFB0"/>
<path d="M50.51 94.25H47.85V110.58H50.51V94.25Z" fill="#A9EBDB"/>
<path d="M50.51 143.25H47.85V159.58H50.51V143.25Z" fill="#A9EBDB"/>
<path d="M71.29 102.27H63.32V134.94H71.29V102.27Z" fill="#30CFB0"/>
<path d="M68.64 85.9399H65.98V102.27H68.64V85.9399Z" fill="#A9EBDB"/>
<path d="M68.64 134.94H65.98V151.27H68.64V134.94Z" fill="#A9EBDB"/>
<path d="M89.42 85.2699H81.45V117.94H89.42V85.2699Z" fill="#30CFB0"/>
<path d="M86.77 68.9399H84.11V85.2699H86.77V68.9399Z" fill="#A9EBDB"/>
<path d="M86.77 117.94H84.11V134.27H86.77V117.94Z" fill="#A9EBDB"/>
<path d="M107.56 76.0399H99.59V108.71H107.56V76.0399Z" fill="#30CFB0"/>
<path d="M104.9 59.7H102.24V76.0299H104.9V59.7Z" fill="#A9EBDB"/>
<path d="M104.9 108.71H102.24V125.04H104.9V108.71Z" fill="#A9EBDB"/>
<path d="M125.69 82.1299H117.72V114.8H125.69V82.1299Z" fill="#30CFB0"/>
<path d="M123.03 65.7899H120.37V82.1199H123.03V65.7899Z" fill="#A9EBDB"/>
<path d="M123.03 114.8H120.37V131.13H123.03V114.8Z" fill="#A9EBDB"/>
<path d="M143.82 91.9099H135.85V124.58H143.82V91.9099Z" fill="#30CFB0"/>
<path d="M141.16 75.5699H138.5V91.8999H141.16V75.5699Z" fill="#A9EBDB"/>
<path d="M141.16 124.57H138.5V140.9H141.16V124.57Z" fill="#A9EBDB"/>
<path d="M161.95 72.0499H153.98V104.72H161.95V72.0499Z" fill="#30CFB0"/>
<path d="M159.29 55.72H156.63V72.05H159.29V55.72Z" fill="#A9EBDB"/>
<path d="M159.29 104.72H156.63V121.05H159.29V104.72Z" fill="#A9EBDB"/>
<path d="M145.13 60.58C155.071 60.58 163.13 52.5211 163.13 42.58C163.13 32.6388 155.071 24.58 145.13 24.58C135.189 24.58 127.13 32.6388 127.13 42.58C127.13 52.5211 135.189 60.58 145.13 60.58Z" fill="url(#paint0_linear_3_17314)"/>
<path d="M145.13 56.56C137.42 56.56 131.15 50.29 131.15 42.58C131.15 34.87 137.42 28.6 145.13 28.6C152.84 28.6 159.11 34.87 159.11 42.58C159.11 50.29 152.84 56.56 145.13 56.56ZM145.13 30.1C138.25 30.1 132.65 35.7 132.65 42.58C132.65 49.46 138.25 55.06 145.13 55.06C152.01 55.06 157.61 49.46 157.61 42.58C157.61 35.7 152.01 30.1 145.13 30.1Z" fill="url(#paint1_linear_3_17314)"/>
<path d="M143.53 36.98L141.9 36.04L138.46 38.02C138.08 38.24 137.84 38.65 137.84 39.09V46.08C137.84 46.52 138.08 46.93 138.46 47.15L139.48 47.74V39.32L143.44 37.03L143.53 36.98Z" fill="#09363F"/>
<path d="M147.55 45.86L149.18 44.92V36.5L145.74 34.52C145.36 34.3 144.89 34.3 144.51 34.52L143.52 35.09H143.5L147.55 37.44V45.85V45.86Z" fill="#09363F"/>
<path d="M142.72 39.3L141.09 40.24V48.66L144.53 50.64C144.72 50.75 144.93 50.8 145.15 50.8C145.37 50.8 145.58 50.74 145.77 50.64L146.79 50.05L142.74 47.71V39.29L142.72 39.3Z" fill="#09363F"/>
<path d="M151.81 38.0199L150.79 37.4299V45.8499L146.83 48.1399L146.74 48.1899L148.38 49.1299L151.82 47.1499C152.2 46.9299 152.44 46.5199 152.44 46.0799V39.0899C152.44 38.6499 152.2 38.2399 151.82 38.0199H151.81Z" fill="#09363F"/>
<path d="M144.32 38.37V46.79L145.14 47.26L145.94 46.79H145.95V38.37L145.14 37.9L144.35 38.36L144.32 38.37Z" fill="#09363F"/>
<path d="M36.27 78.65C46.2111 78.65 54.27 70.5912 54.27 60.65C54.27 50.7089 46.2111 42.65 36.27 42.65C26.3289 42.65 18.27 50.7089 18.27 60.65C18.27 70.5912 26.3289 78.65 36.27 78.65Z" fill="url(#paint2_linear_3_17314)"/>
<path d="M36.27 74.63C28.56 74.63 22.29 68.36 22.29 60.65C22.29 52.94 28.56 46.67 36.27 46.67C43.98 46.67 50.25 52.94 50.25 60.65C50.25 68.36 43.98 74.63 36.27 74.63ZM36.27 48.17C29.39 48.17 23.79 53.77 23.79 60.65C23.79 67.53 29.39 73.13 36.27 73.13C43.15 73.13 48.75 67.53 48.75 60.65C48.75 53.77 43.15 48.17 36.27 48.17Z" fill="url(#paint3_linear_3_17314)"/>
<path d="M42.14 59.04C42.4 57.31 41.08 56.38 39.27 55.75L39.86 53.4L38.43 53.04L37.86 55.33C37.48 55.24 37.1 55.15 36.72 55.06L37.29 52.76L35.86 52.4L35.27 54.75C34.96 54.68 34.65 54.61 34.36 54.54L32.39 54.04L32.01 55.57C32.01 55.57 33.07 55.81 33.05 55.83C33.63 55.97 33.73 56.36 33.72 56.66L33.05 59.34L32.12 63.09C32.05 63.27 31.87 63.53 31.47 63.43C31.48 63.45 30.43 63.17 30.43 63.17L29.72 64.81L31.58 65.27C31.93 65.36 32.27 65.45 32.6 65.53L32.01 67.91L33.44 68.27L34.03 65.92C34.42 66.03 34.8 66.12 35.17 66.22L34.59 68.56L36.02 68.92L36.61 66.55C39.05 67.01 40.88 66.83 41.65 64.62C42.27 62.85 41.62 61.82 40.34 61.15C41.27 60.93 41.98 60.32 42.16 59.05L42.14 59.04ZM38.87 63.62C38.43 65.39 35.44 64.44 34.47 64.19L35.25 61.04C36.22 61.28 39.32 61.76 38.86 63.61L38.87 63.62ZM39.31 59.02C38.91 60.63 36.42 59.81 35.61 59.61L36.32 56.76C37.13 56.96 39.73 57.34 39.31 59.02Z" fill="#09363F"/>
<path d="M86.77 58C96.7111 58 104.77 49.9411 104.77 40C104.77 30.0589 96.7111 22 86.77 22C76.8289 22 68.77 30.0589 68.77 40C68.77 49.9411 76.8289 58 86.77 58Z" fill="url(#paint4_linear_3_17314)"/>
<path d="M86.89 53.79C79.18 53.79 72.91 47.52 72.91 39.81C72.91 32.1 79.18 25.83 86.89 25.83C94.6 25.83 100.87 32.1 100.87 39.81C100.87 47.52 94.6 53.79 86.89 53.79ZM86.89 27.33C80.01 27.33 74.41 32.93 74.41 39.81C74.41 46.69 80.01 52.29 86.89 52.29C93.77 52.29 99.37 46.69 99.37 39.81C99.37 32.93 93.77 27.33 86.89 27.33Z" fill="url(#paint5_linear_3_17314)"/>
<path d="M86.89 30.86V37.48L92.49 39.98L86.89 30.85V30.86Z" fill="black"/>
<path d="M86.89 30.86L81.29 39.99L86.89 37.49V30.87V30.86Z" fill="#09363F"/>
<path d="M86.89 44.27V48.77L92.49 41.02L86.89 44.27Z" fill="black"/>
<path d="M86.89 48.77V44.27L81.29 41.02L86.89 48.77Z" fill="#09363F"/>
<path d="M86.89 43.23L92.49 39.98L86.89 37.48V43.23Z" fill="black"/>
<path d="M81.29 39.98L86.89 43.23V37.48L81.29 39.98Z" fill="black"/>
<defs>
<linearGradient id="paint0_linear_3_17314" x1="135.39" y1="27.77" x2="154.69" y2="57.11" gradientUnits="userSpaceOnUse">
<stop stop-color="#EBF1F2"/>
<stop offset="0.08" stop-color="#EEF3F3"/>
<stop offset="0.55" stop-color="#FAFCFC"/>
<stop offset="1" stop-color="white"/>
</linearGradient>
<linearGradient id="paint1_linear_3_17314" x1="135.25" y1="32.7" x2="155.02" y2="52.46" gradientUnits="userSpaceOnUse">
<stop stop-color="#30CFB0"/>
<stop offset="0.2" stop-color="#34C6B6"/>
<stop offset="0.51" stop-color="#40B0C9"/>
<stop offset="0.89" stop-color="#548CE6"/>
<stop offset="1" stop-color="#5B82F0"/>
</linearGradient>
<linearGradient id="paint2_linear_3_17314" x1="26.53" y1="45.84" x2="45.83" y2="75.18" gradientUnits="userSpaceOnUse">
<stop stop-color="#EBF1F2"/>
<stop offset="0.08" stop-color="#EEF3F3"/>
<stop offset="0.55" stop-color="#FAFCFC"/>
<stop offset="1" stop-color="white"/>
</linearGradient>
<linearGradient id="paint3_linear_3_17314" x1="26.39" y1="50.77" x2="46.15" y2="70.53" gradientUnits="userSpaceOnUse">
<stop stop-color="#30CFB0"/>
<stop offset="0.2" stop-color="#34C6B6"/>
<stop offset="0.51" stop-color="#40B0C9"/>
<stop offset="0.89" stop-color="#548CE6"/>
<stop offset="1" stop-color="#5B82F0"/>
</linearGradient>
<linearGradient id="paint4_linear_3_17314" x1="77.02" y1="25.19" x2="96.32" y2="54.53" gradientUnits="userSpaceOnUse">
<stop stop-color="#EBF1F2"/>
<stop offset="0.08" stop-color="#EEF3F3"/>
<stop offset="0.55" stop-color="#FAFCFC"/>
<stop offset="1" stop-color="white"/>
</linearGradient>
<linearGradient id="paint5_linear_3_17314" x1="77.01" y1="29.94" x2="96.77" y2="49.7" gradientUnits="userSpaceOnUse">
<stop stop-color="#30CFB0"/>
<stop offset="0.2" stop-color="#34C6B6"/>
<stop offset="0.51" stop-color="#40B0C9"/>
<stop offset="0.89" stop-color="#548CE6"/>
<stop offset="1" stop-color="#5B82F0"/>
</linearGradient>
</defs>
</svg>
