<svg width="117" height="31" viewBox="0 0 117 31" fill="none" xmlns="http://www.w3.org/2000/svg">
<path d="M43.21 4.34H39.01V27.46H43.21V4.34Z" fill="#DEF7F3"/>
<path d="M65.96 24.09C67.94 21.98 69.03 18.97 69.03 15.63C69.03 12.29 67.96 9.43 65.94 7.41C63.93 5.4 61.1 4.34 57.76 4.34H48.76V27.46H57.58C61 27.46 63.9 26.29 65.96 24.09ZM52.95 24.15V7.66H57.37C62.75 7.66 64.66 11.79 64.66 15.66C64.66 21.06 61.99 24.15 57.35 24.15H52.95Z" fill="#DEF7F3"/>
<path d="M86.05 21.5L88.1 27.46H92.53L84.04 4.34H78.64L70.5 27.46H74.62L76.58 21.5H86.06H86.05ZM81.2 7.13L81.49 8.27L84.89 18.15H77.67L80.91 8.27L81.19 7.13H81.2Z" fill="#DEF7F3"/>
<path d="M105.43 4C101.96 4 99.04 5.19 97 7.43C95.07 9.54 94.01 12.55 94.01 15.89C94.01 19.23 94.99 22.2 96.85 24.33C98.82 26.59 101.68 27.79 105.12 27.79C108.56 27.79 111.63 26.55 113.67 24.2C115.52 22.07 116.54 19.09 116.54 15.79C116.54 12.32 115.5 9.37 113.54 7.26C111.56 5.12 108.75 3.99 105.44 3.99L105.43 4ZM110.62 21.84C109.43 23.58 107.63 24.46 105.29 24.46C100.18 24.46 98.37 19.99 98.37 15.8C98.37 10.42 100.87 7.34 105.24 7.34C109.61 7.34 112.17 10.52 112.17 15.86C112.17 18.29 111.63 20.36 110.62 21.84Z" fill="#DEF7F3"/>
<path d="M11.3 5.75L8.35 4.05H8.34L2.12 7.63C1.43 8.03 1 8.77 1 9.56V22.23C1 23.03 1.43 23.77 2.12 24.16L3.96 25.22V9.97L11.14 5.82L11.3 5.73V5.75Z" fill="#DEF7F3"/>
<path d="M18.59 21.85L21.54 20.15H21.55V4.89L15.32 1.3C14.63 0.9 13.78 0.9 13.09 1.3L11.29 2.34L11.25 2.37L18.59 6.61V21.86V21.85Z" fill="#DEF7F3"/>
<path d="M9.81998 9.95L6.86999 11.65H6.85999V26.91L13.09 30.51C13.43 30.71 13.81 30.81 14.21 30.81C14.61 30.81 14.99 30.71 15.33 30.51L17.17 29.44L9.82999 25.2V9.95H9.81998Z" fill="#DEF7F3"/>
<path d="M26.29 7.63L24.45 6.57V21.82L17.27 25.97L17.11 26.06L20.07 27.77L26.29 24.17C26.98 23.77 27.41 23.03 27.41 22.24V9.57C27.41 8.78 26.98 8.03 26.29 7.64V7.63Z" fill="#DEF7F3"/>
<path d="M12.72 8.28V23.52L14.21 24.38L15.67 23.53L15.69 23.52V8.28L14.21 7.42L12.78 8.25L12.72 8.28Z" fill="#DEF7F3"/>
</svg>
