<svg width="188" height="188" viewBox="0 0 188 188" fill="none" xmlns="http://www.w3.org/2000/svg">
<g clip-path="url(#clip0_3_17378)">
<path d="M172.66 96.4501H170.66V93.8001H172.66V96.4501ZM172.66 88.8001H170.66V83.8001H172.66V88.8001ZM172.66 78.8001H170.66V73.8001H172.66V78.8001ZM172.66 68.8001H170.66V63.8001H172.66V68.8001ZM172.66 58.8001H170.66V53.8001H172.66V58.8001ZM172.66 48.8001H170.66V46.2801C170.66 45.4901 170.62 44.6901 170.53 43.9101L172.52 43.7001C172.61 44.5501 172.66 45.4201 172.66 46.2801V48.8001ZM169.52 39.2501C169.02 37.7401 168.35 36.2801 167.53 34.9101L169.25 33.8801C170.14 35.3701 170.87 36.9701 171.42 38.6101L169.52 39.2401V39.2501ZM164.65 31.1001C163.56 29.9401 162.34 28.8901 161.03 27.9801L162.16 26.3301C163.59 27.3201 164.92 28.4601 166.1 29.7201L164.64 31.0901L164.65 31.1001ZM156.83 25.7101C155.36 25.1101 153.81 24.6701 152.24 24.4001L152.58 22.4301C154.29 22.7301 155.98 23.2101 157.58 23.8601L156.82 25.7101H156.83ZM147.43 24.0701H142.43V22.0701H147.43V24.0701ZM137.43 24.0701H132.43V22.0701H137.43V24.0701ZM127.43 24.0701H122.43V22.0701H127.43V24.0701ZM117.43 24.0701H112.43V22.0701H117.43V24.0701ZM107.43 24.0701H102.43V22.0701H107.43V24.0701ZM97.4299 24.0701H92.4299V22.0701H97.4299V24.0701Z" fill="url(#paint0_linear_3_17378)"/>
<path d="M97.1599 174.19H92.1599V172.19H97.1599V174.19ZM87.1599 174.19H82.1599V172.19H87.1599V174.19ZM77.1599 174.19H72.1599V172.19H77.1599V174.19ZM67.1599 174.19H62.1599V172.19H67.1599V174.19ZM57.1599 174.19H52.1599V172.19H57.1599V174.19ZM47.1599 174.19H44.7499C43.8499 174.19 42.9399 174.14 42.0599 174.04L42.2799 172.05C43.0899 172.14 43.9299 172.19 44.7499 172.19H47.1599V174.19ZM36.9699 172.91C35.3299 172.35 33.7399 171.61 32.2499 170.72L33.2799 169.01C34.6399 169.83 36.0999 170.51 37.6099 171.02L36.9699 172.91ZM28.1099 167.56C26.8499 166.37 25.7099 165.03 24.7299 163.6L26.3799 162.47C27.2799 163.78 28.3199 165.01 29.4799 166.1L28.1099 167.55V167.56ZM22.2799 159.01C21.6299 157.4 21.1599 155.71 20.8699 154L22.8399 153.67C23.0999 155.24 23.5399 156.79 24.1299 158.26L22.2699 159.01H22.2799ZM22.5299 148.85H20.5299V143.85H22.5299V148.85ZM22.5299 138.85H20.5299V133.85H22.5299V138.85ZM22.5299 128.85H20.5299V123.85H22.5299V128.85ZM22.5299 118.85H20.5299V113.85H22.5299V118.85ZM22.5299 108.85H20.5299V104.79H22.5299V108.85Z" fill="url(#paint1_linear_3_17378)"/>
<path d="M10.882 42.378L36.6206 16.6394C43.126 10.134 53.6831 10.1411 60.1814 16.6394L85.9201 42.378C92.4255 48.8834 92.4184 59.4405 85.9201 65.9388L60.1814 91.6775C53.6761 98.1829 43.119 98.1758 36.6206 91.6775L10.882 65.9388C4.37658 59.4335 4.38365 48.8764 10.882 42.378Z" fill="url(#paint2_linear_3_17378)"/>
<path d="M40.8199 22L16.2299 46.59C12.0399 50.78 12.0399 57.57 16.2299 61.75L40.8199 86.34C44.9999 90.52 51.7899 90.52 55.9799 86.34L80.5699 61.75C84.7499 57.57 84.7499 50.78 80.5699 46.6L55.9799 22.01C51.7999 17.83 45.0099 17.83 40.8299 22.01L40.8199 22ZM77.5399 49.28C80.2399 51.98 80.2399 56.36 77.5399 59.07L53.2899 83.32C50.5899 86.02 46.2099 86.02 43.4999 83.32L19.2499 59.07C16.5499 56.37 16.5499 51.98 19.2499 49.28L43.4999 25.03C46.1999 22.33 50.5799 22.33 53.2899 25.03L77.5399 49.28Z" fill="url(#paint3_linear_3_17378)"/>
<path d="M53.29 25.03L77.54 49.28C80.24 51.98 80.24 56.36 77.54 59.07L53.29 83.32C50.59 86.02 46.21 86.02 43.5 83.32L19.25 59.07C16.55 56.37 16.55 51.98 19.25 49.28L43.5 25.03C46.2 22.33 50.58 22.33 53.29 25.03Z" fill="white"/>
<path d="M163.09 107.23H126.68C117.479 107.23 110.02 114.689 110.02 123.89V160.3C110.02 169.501 117.479 176.96 126.68 176.96H163.09C172.291 176.96 179.75 169.501 179.75 160.3V123.89C179.75 114.689 172.291 107.23 163.09 107.23Z" fill="url(#paint4_linear_3_17378)"/>
<path d="M162.27 113.98H127.5C121.57 113.98 116.77 118.78 116.77 124.7V159.48C116.77 165.4 121.57 170.2 127.5 170.2H162.27C168.19 170.2 172.99 165.4 172.99 159.48V124.7C172.99 118.78 168.19 113.98 162.27 113.98ZM168.95 159.23C168.95 163.06 165.85 166.15 162.03 166.15H127.74C123.93 166.15 120.82 163.05 120.82 159.23V124.94C120.82 121.12 123.93 118.02 127.74 118.02H162.03C165.85 118.02 168.95 121.12 168.95 124.94V159.23Z" fill="url(#paint5_linear_3_17378)"/>
<path d="M168.94 124.94V159.23C168.94 163.06 165.84 166.15 162.02 166.15H127.73C123.92 166.15 120.81 163.05 120.81 159.23V124.94C120.81 121.12 123.92 118.02 127.73 118.02H162.02C165.84 118.02 168.94 121.12 168.94 124.94Z" fill="white"/>
<path d="M171.66 100.45C173.869 100.45 175.66 98.6592 175.66 96.4501C175.66 94.2409 173.869 92.4501 171.66 92.4501C169.451 92.4501 167.66 94.2409 167.66 96.4501C167.66 98.6592 169.451 100.45 171.66 100.45Z" fill="#30CFB0"/>
<path d="M21.5399 105.36C23.7491 105.36 25.5399 103.569 25.5399 101.36C25.5399 99.1508 23.7491 97.36 21.5399 97.36C19.3308 97.36 17.5399 99.1508 17.5399 101.36C17.5399 103.569 19.3308 105.36 21.5399 105.36Z" fill="#30CFB0"/>
<path d="M146.44 98.13H144.44V55.16H83.7098V53.16H146.44V98.13Z" fill="#09363F"/>
<path d="M116.78 143.09H47.4498V100.13H49.4498V141.09H116.78V143.09Z" fill="#09363F"/>
<path d="M47.8999 98.16C48.1499 97.73 48.7699 97.73 49.0099 98.16L50.7599 101.18L52.5099 104.2C52.7599 104.63 52.4499 105.17 51.9499 105.17H44.9699C44.4699 105.17 44.1699 104.63 44.4099 104.2L46.1599 101.18L47.9099 98.16H47.8999Z" fill="#09363F"/>
<path d="M145.99 100.02C145.74 100.45 145.12 100.45 144.88 100.02L143.13 97L141.38 93.98C141.13 93.55 141.44 93.01 141.94 93.01H148.92C149.42 93.01 149.72 93.55 149.48 93.98L147.73 97L145.98 100.02H145.99Z" fill="#09363F"/>
<path d="M48.8099 50.79C52.8858 50.79 56.1899 47.4545 56.1899 43.34C56.1899 39.2255 52.8858 35.89 48.8099 35.89C44.7341 35.89 41.4299 39.2255 41.4299 43.34C41.4299 47.4545 44.7341 50.79 48.8099 50.79Z" fill="#09363F"/>
<path d="M62.95 62.9901V65.3901C62.95 65.7101 62.69 65.9801 62.36 65.9801H34.54C34.22 65.9801 33.95 65.7201 33.95 65.3901V62.9901C33.95 57.8501 38.1199 53.6801 43.2599 53.6801H45.9599L47.38 56.1601L48.2 57.6001C48.47 58.0601 49.13 58.0601 49.4 57.6001L50.22 56.1601L51.6399 53.6801H53.63C58.77 53.6801 62.9399 57.8501 62.9399 62.9901H62.95Z" fill="#09363F"/>
<path d="M145.23 141.22C149.306 141.22 152.61 137.885 152.61 133.77C152.61 129.656 149.306 126.32 145.23 126.32C141.154 126.32 137.85 129.656 137.85 133.77C137.85 137.885 141.154 141.22 145.23 141.22Z" fill="#09363F"/>
<path d="M159.38 153.43V155.83C159.38 156.15 159.12 156.42 158.79 156.42H130.97C130.65 156.42 130.38 156.16 130.38 155.83V153.43C130.38 148.29 134.55 144.12 139.69 144.12H142.39L143.81 146.6L144.63 148.04C144.9 148.5 145.56 148.5 145.83 148.04L146.65 146.6L148.07 144.12H150.06C155.2 144.12 159.37 148.29 159.37 153.43H159.38Z" fill="#09363F"/>
<path d="M106.07 37C116.011 37 124.07 28.9411 124.07 19C124.07 9.05887 116.011 1 106.07 1C96.1289 1 88.0701 9.05887 88.0701 19C88.0701 28.9411 96.1289 37 106.07 37Z" fill="url(#paint6_linear_3_17378)"/>
<path d="M106.07 32.98C98.3601 32.98 92.0901 26.71 92.0901 19C92.0901 11.29 98.3601 5.02002 106.07 5.02002C113.78 5.02002 120.05 11.29 120.05 19C120.05 26.71 113.78 32.98 106.07 32.98ZM106.07 6.52002C99.1901 6.52002 93.5901 12.12 93.5901 19C93.5901 25.88 99.1901 31.48 106.07 31.48C112.95 31.48 118.55 25.88 118.55 19C118.55 12.12 112.95 6.52002 106.07 6.52002Z" fill="url(#paint7_linear_3_17378)"/>
<path d="M108.97 15.96C108.9 15.33 108.61 14.84 108.09 14.49C107.57 14.14 106.92 13.97 106.14 13.97C105.58 13.97 105.09 14.06 104.68 14.23C104.27 14.41 103.95 14.65 103.73 14.95C103.5 15.25 103.39 15.6 103.39 15.99C103.39 16.31 103.47 16.6 103.62 16.83C103.77 17.06 103.98 17.26 104.23 17.42C104.48 17.58 104.75 17.71 105.04 17.81C105.33 17.91 105.61 18 105.87 18.07L107.2 18.42C107.64 18.53 108.08 18.67 108.54 18.85C109 19.03 109.42 19.27 109.81 19.57C110.2 19.87 110.52 20.24 110.76 20.68C111 21.12 111.12 21.65 111.12 22.26C111.12 23.03 110.92 23.72 110.52 24.32C110.12 24.92 109.55 25.39 108.79 25.74C108.04 26.09 107.13 26.26 106.06 26.26C104.99 26.26 104.15 26.1 103.4 25.77C102.65 25.45 102.07 24.98 101.65 24.39C101.23 23.79 100.99 23.08 100.95 22.26H103.02C103.06 22.75 103.22 23.16 103.5 23.49C103.78 23.82 104.14 24.06 104.59 24.22C105.03 24.38 105.52 24.46 106.05 24.46C106.63 24.46 107.15 24.37 107.61 24.18C108.07 24 108.42 23.74 108.69 23.41C108.95 23.08 109.08 22.69 109.08 22.25C109.08 21.85 108.97 21.51 108.74 21.26C108.51 21 108.2 20.79 107.81 20.62C107.42 20.45 106.98 20.3 106.49 20.17L104.88 19.73C103.79 19.43 102.92 18.99 102.28 18.42C101.64 17.84 101.32 17.08 101.32 16.12C101.32 15.33 101.53 14.65 101.96 14.06C102.39 13.47 102.97 13.02 103.7 12.69C104.43 12.36 105.25 12.2 106.17 12.2C107.09 12.2 107.91 12.36 108.62 12.69C109.33 13.01 109.89 13.46 110.3 14.03C110.71 14.6 110.92 15.25 110.94 15.98H108.95L108.97 15.96ZM105.45 27.74L105.5 10.66H106.75L106.7 27.74H105.45Z" fill="#09363F"/>
<path d="M100.27 171.106C101.326 164.602 96.9091 158.474 90.4055 157.418C83.9019 156.363 77.7738 160.779 76.7181 167.283C75.6624 173.786 80.0789 179.914 86.5825 180.97C93.0862 182.026 99.2142 177.609 100.27 171.106Z" fill="url(#paint8_linear_3_17378)"/>
<path d="M88.49 178.71C83.24 178.71 78.97 174.44 78.97 169.19C78.97 163.94 83.24 159.67 88.49 159.67C93.74 159.67 98.01 163.94 98.01 169.19C98.01 174.44 93.74 178.71 88.49 178.71ZM88.49 161.17C84.07 161.17 80.47 164.77 80.47 169.19C80.47 173.61 84.07 177.21 88.49 177.21C92.91 177.21 96.51 173.61 96.51 169.19C96.51 164.77 92.91 161.17 88.49 161.17Z" fill="url(#paint9_linear_3_17378)"/>
<path d="M90.4199 167.18C90.3699 166.76 90.1799 166.44 89.8399 166.2C89.4999 165.97 89.0699 165.85 88.5499 165.85C88.1799 165.85 87.8599 165.91 87.5899 166.02C87.3199 166.14 87.1099 166.3 86.9599 166.5C86.8099 166.7 86.7399 166.93 86.7399 167.19C86.7399 167.41 86.7899 167.59 86.8899 167.75C86.9899 167.91 87.1299 168.04 87.2899 168.14C87.4499 168.24 87.6399 168.33 87.8299 168.4C88.0199 168.47 88.2099 168.53 88.3799 168.57L89.2599 168.8C89.5499 168.87 89.8499 168.97 90.1499 169.09C90.4499 169.21 90.7399 169.37 90.9899 169.57C91.2499 169.77 91.4599 170.01 91.6199 170.3C91.7799 170.59 91.8599 170.94 91.8599 171.35C91.8599 171.86 91.7299 172.32 91.4599 172.72C91.1999 173.12 90.8099 173.43 90.3099 173.66C89.8099 173.89 89.2099 174 88.4999 174C87.7899 174 87.2399 173.89 86.7399 173.68C86.2399 173.46 85.8599 173.16 85.5799 172.76C85.2999 172.36 85.1499 171.89 85.1199 171.35H86.4899C86.5199 171.68 86.6199 171.95 86.8099 172.17C86.9999 172.39 87.2399 172.55 87.5299 172.65C87.8199 172.75 88.1499 172.81 88.4999 172.81C88.8899 172.81 89.2299 172.75 89.5299 172.63C89.8299 172.51 90.0699 172.34 90.2399 172.12C90.4099 171.9 90.4999 171.64 90.4999 171.35C90.4999 171.08 90.4199 170.86 90.2699 170.69C90.1199 170.52 89.9099 170.38 89.6599 170.27C89.3999 170.16 89.1099 170.06 88.7899 169.97L87.7199 169.68C86.9899 169.48 86.4199 169.19 85.9999 168.81C85.5799 168.43 85.3699 167.92 85.3699 167.29C85.3699 166.77 85.5099 166.31 85.7899 165.92C86.0699 165.53 86.4599 165.23 86.9399 165.01C87.4199 164.79 87.9699 164.68 88.5799 164.68C89.1899 164.68 89.7399 164.79 90.2099 165C90.6799 165.22 91.0499 165.51 91.3199 165.89C91.5899 166.27 91.7299 166.7 91.7399 167.18H90.4199ZM88.0799 174.99L88.1199 163.67H88.9499L88.9099 174.99H88.0799Z" fill="#09363F"/>
<path d="M74.4801 171.38C81.0688 171.38 86.4101 166.039 86.4101 159.45C86.4101 152.861 81.0688 147.52 74.4801 147.52C67.8913 147.52 62.55 152.861 62.55 159.45C62.55 166.039 67.8913 171.38 74.4801 171.38Z" fill="url(#paint10_linear_3_17378)"/>
<path d="M74.4801 168.97C69.2301 168.97 64.9601 164.7 64.9601 159.45C64.9601 154.2 69.2301 149.93 74.4801 149.93C79.7301 149.93 84.0001 154.2 84.0001 159.45C84.0001 164.7 79.7301 168.97 74.4801 168.97ZM74.4801 151.43C70.0601 151.43 66.4601 155.03 66.4601 159.45C66.4601 163.87 70.0601 167.47 74.4801 167.47C78.9001 167.47 82.5001 163.87 82.5001 159.45C82.5001 155.03 78.9001 151.43 74.4801 151.43Z" fill="url(#paint11_linear_3_17378)"/>
<path d="M76.4001 157.44C76.3501 157.02 76.1601 156.7 75.8201 156.46C75.4801 156.23 75.0501 156.11 74.5301 156.11C74.1601 156.11 73.8401 156.17 73.5701 156.28C73.3001 156.4 73.0901 156.56 72.9401 156.76C72.7901 156.96 72.7201 157.19 72.7201 157.45C72.7201 157.67 72.7701 157.85 72.8701 158.01C72.9701 158.17 73.1101 158.3 73.2701 158.4C73.4301 158.5 73.6201 158.59 73.8101 158.66C74.0001 158.73 74.1901 158.79 74.3601 158.83L75.2401 159.06C75.5301 159.13 75.8201 159.23 76.1301 159.35C76.4301 159.47 76.7201 159.63 76.9701 159.83C77.2301 160.03 77.4401 160.27 77.6001 160.56C77.7601 160.85 77.8401 161.2 77.8401 161.61C77.8401 162.12 77.7101 162.58 77.4401 162.98C77.1801 163.38 76.7901 163.69 76.2901 163.92C75.7901 164.15 75.1901 164.27 74.4801 164.27C73.7701 164.27 73.2201 164.16 72.7201 163.95C72.2301 163.73 71.8401 163.43 71.5601 163.03C71.2801 162.63 71.1301 162.16 71.1001 161.62H72.4701C72.5001 161.95 72.6001 162.22 72.7901 162.44C72.9801 162.66 73.2201 162.82 73.5101 162.92C73.8001 163.02 74.1301 163.08 74.4801 163.08C74.8701 163.08 75.2101 163.02 75.5101 162.9C75.8101 162.78 76.0501 162.61 76.2201 162.39C76.3901 162.17 76.4801 161.91 76.4801 161.62C76.4801 161.35 76.4001 161.13 76.2501 160.96C76.1001 160.79 75.8901 160.65 75.6401 160.54C75.3801 160.43 75.0901 160.33 74.7701 160.24L73.7001 159.95C72.9701 159.75 72.4001 159.46 71.9801 159.08C71.5601 158.7 71.3501 158.19 71.3501 157.56C71.3501 157.04 71.4901 156.58 71.7701 156.19C72.0501 155.8 72.4401 155.5 72.9201 155.28C73.4001 155.06 73.9501 154.95 74.5601 154.95C75.1701 154.95 75.7201 155.06 76.1901 155.27C76.6601 155.49 77.0301 155.78 77.3001 156.16C77.5701 156.54 77.7101 156.97 77.7201 157.45H76.4001V157.44ZM74.0601 165.25L74.1001 153.93H74.9301L74.8901 165.25H74.0601Z" fill="#09363F"/>
<path d="M84.7982 178.633C86.3117 172.221 82.3402 165.796 75.9277 164.282C69.5151 162.769 63.0898 166.74 61.5763 173.153C60.0628 179.565 64.0342 185.99 70.4468 187.504C76.8594 189.017 83.2847 185.046 84.7982 178.633Z" fill="url(#paint12_linear_3_17378)"/>
<path d="M73.19 185.41C67.94 185.41 63.67 181.14 63.67 175.89C63.67 170.64 67.94 166.37 73.19 166.37C78.44 166.37 82.71 170.64 82.71 175.89C82.71 181.14 78.44 185.41 73.19 185.41ZM73.19 167.87C68.77 167.87 65.17 171.47 65.17 175.89C65.17 180.31 68.77 183.91 73.19 183.91C77.61 183.91 81.21 180.31 81.21 175.89C81.21 171.47 77.61 167.87 73.19 167.87Z" fill="url(#paint13_linear_3_17378)"/>
<path d="M75.1199 173.88C75.0699 173.46 74.8799 173.14 74.5399 172.9C74.1999 172.67 73.7699 172.55 73.2499 172.55C72.8799 172.55 72.5599 172.61 72.2899 172.72C72.0199 172.84 71.81 173 71.66 173.2C71.51 173.4 71.4399 173.63 71.4399 173.89C71.4399 174.11 71.4899 174.29 71.5899 174.45C71.6899 174.61 71.8299 174.74 71.9899 174.84C72.1599 174.94 72.3399 175.03 72.5299 175.1C72.7199 175.17 72.9099 175.23 73.0799 175.27L73.9599 175.5C74.2499 175.57 74.5499 175.67 74.8499 175.79C75.1499 175.91 75.4399 176.07 75.6899 176.27C75.9499 176.47 76.1599 176.71 76.3199 177C76.4799 177.29 76.5599 177.64 76.5599 178.05C76.5599 178.56 76.43 179.02 76.16 179.42C75.9 179.82 75.5099 180.13 75.0099 180.36C74.5099 180.59 73.9099 180.71 73.1999 180.71C72.4899 180.71 71.9399 180.6 71.4399 180.39C70.9499 180.17 70.5599 179.87 70.2799 179.47C69.9999 179.07 69.8499 178.6 69.8199 178.06H71.1899C71.2199 178.39 71.3199 178.66 71.5099 178.88C71.6999 179.1 71.9399 179.26 72.2299 179.36C72.5199 179.46 72.8499 179.52 73.1999 179.52C73.5899 179.52 73.9299 179.46 74.2299 179.34C74.53 179.22 74.7699 179.05 74.9399 178.83C75.1099 178.61 75.1999 178.35 75.1999 178.06C75.1999 177.79 75.1199 177.57 74.9699 177.4C74.8199 177.23 74.6099 177.09 74.3599 176.98C74.0999 176.87 73.8099 176.77 73.4899 176.68L72.4199 176.39C71.6899 176.19 71.1199 175.9 70.6999 175.52C70.2799 175.14 70.0699 174.63 70.0699 174C70.0699 173.48 70.2099 173.02 70.4899 172.63C70.7699 172.24 71.1599 171.94 71.6399 171.72C72.1199 171.5 72.6699 171.39 73.2799 171.39C73.8899 171.39 74.43 171.5 74.91 171.71C75.38 171.93 75.7499 172.22 76.0199 172.6C76.2899 172.98 76.4299 173.41 76.4399 173.89H75.1199V173.88ZM72.7799 181.69L72.8199 170.37H73.6499L73.6099 181.69H72.7799Z" fill="#09363F"/>
</g>
<defs>
<linearGradient id="paint0_linear_3_17378" x1="92.4399" y1="59.2601" x2="172.66" y2="59.2601" gradientUnits="userSpaceOnUse">
<stop stop-color="#6A8BE6" stop-opacity="0"/>
<stop offset="0.1" stop-color="#6293DF" stop-opacity="0.13"/>
<stop offset="0.34" stop-color="#50A8CE" stop-opacity="0.44"/>
<stop offset="0.56" stop-color="#42B9C1" stop-opacity="0.68"/>
<stop offset="0.75" stop-color="#38C5B7" stop-opacity="0.85"/>
<stop offset="0.9" stop-color="#32CCB2" stop-opacity="0.96"/>
<stop offset="1" stop-color="#30CFB0"/>
</linearGradient>
<linearGradient id="paint1_linear_3_17378" x1="20.5399" y1="139.5" x2="97.1599" y2="139.5" gradientUnits="userSpaceOnUse">
<stop stop-color="#30CFB0"/>
<stop offset="0.1" stop-color="#32CCB2" stop-opacity="0.96"/>
<stop offset="0.25" stop-color="#38C5B7" stop-opacity="0.85"/>
<stop offset="0.44" stop-color="#42B9C1" stop-opacity="0.68"/>
<stop offset="0.66" stop-color="#50A8CE" stop-opacity="0.44"/>
<stop offset="0.9" stop-color="#6293DF" stop-opacity="0.13"/>
<stop offset="1" stop-color="#6A8BE6" stop-opacity="0"/>
</linearGradient>
<linearGradient id="paint2_linear_3_17378" x1="19.4629" y1="19.5882" x2="68.9929" y2="78.7482" gradientUnits="userSpaceOnUse">
<stop stop-color="#EBF1F2"/>
<stop offset="0.07" stop-color="#EDF2F3"/>
<stop offset="0.55" stop-color="#FAFBFC"/>
<stop offset="1" stop-color="white"/>
</linearGradient>
<linearGradient id="paint3_linear_3_17378" x1="14.4058" y1="49.4123" x2="80.9021" y2="58.7178" gradientUnits="userSpaceOnUse">
<stop stop-color="#30CFB0"/>
<stop offset="0.22" stop-color="#36C6B6"/>
<stop offset="0.56" stop-color="#49B0C7"/>
<stop offset="0.98" stop-color="#688CE4"/>
<stop offset="1" stop-color="#6A8BE6"/>
</linearGradient>
<linearGradient id="paint4_linear_3_17378" x1="116.47" y1="111.92" x2="173.37" y2="172.35" gradientUnits="userSpaceOnUse">
<stop stop-color="#EBF1F2"/>
<stop offset="0.07" stop-color="#EDF2F3"/>
<stop offset="0.55" stop-color="#FAFBFC"/>
<stop offset="1" stop-color="white"/>
</linearGradient>
<linearGradient id="paint5_linear_3_17378" x1="124.2" y1="114.69" x2="164.64" y2="168.3" gradientUnits="userSpaceOnUse">
<stop stop-color="#30CFB0"/>
<stop offset="0.22" stop-color="#36C6B6"/>
<stop offset="0.56" stop-color="#49B0C7"/>
<stop offset="0.98" stop-color="#688CE4"/>
<stop offset="1" stop-color="#6A8BE6"/>
</linearGradient>
<linearGradient id="paint6_linear_3_17378" x1="96.3201" y1="4.19" x2="115.62" y2="33.53" gradientUnits="userSpaceOnUse">
<stop stop-color="#EBF1F2"/>
<stop offset="0.08" stop-color="#EEF3F3"/>
<stop offset="0.55" stop-color="#FAFCFC"/>
<stop offset="1" stop-color="white"/>
</linearGradient>
<linearGradient id="paint7_linear_3_17378" x1="96.1901" y1="9.12002" x2="115.95" y2="28.88" gradientUnits="userSpaceOnUse">
<stop stop-color="#30CFB0"/>
<stop offset="0.2" stop-color="#34C6B6"/>
<stop offset="0.51" stop-color="#40B0C9"/>
<stop offset="0.89" stop-color="#548CE6"/>
<stop offset="1" stop-color="#5B82F0"/>
</linearGradient>
<linearGradient id="paint8_linear_3_17378" x1="82.0366" y1="159.375" x2="94.8266" y2="178.825" gradientUnits="userSpaceOnUse">
<stop stop-color="#EBF1F2"/>
<stop offset="0.08" stop-color="#EEF3F3"/>
<stop offset="0.55" stop-color="#FAFCFC"/>
<stop offset="1" stop-color="white"/>
</linearGradient>
<linearGradient id="paint9_linear_3_17378" x1="81.76" y1="162.46" x2="95.22" y2="175.92" gradientUnits="userSpaceOnUse">
<stop stop-color="#30CFB0"/>
<stop offset="0.2" stop-color="#34C6B6"/>
<stop offset="0.51" stop-color="#40B0C9"/>
<stop offset="0.89" stop-color="#548CE6"/>
<stop offset="1" stop-color="#5B82F0"/>
</linearGradient>
<linearGradient id="paint10_linear_3_17378" x1="68.02" y1="149.64" x2="80.81" y2="169.08" gradientUnits="userSpaceOnUse">
<stop stop-color="#EBF1F2"/>
<stop offset="0.08" stop-color="#EEF3F3"/>
<stop offset="0.55" stop-color="#FAFCFC"/>
<stop offset="1" stop-color="white"/>
</linearGradient>
<linearGradient id="paint11_linear_3_17378" x1="67.7501" y1="152.72" x2="81.2001" y2="166.18" gradientUnits="userSpaceOnUse">
<stop stop-color="#30CFB0"/>
<stop offset="0.2" stop-color="#34C6B6"/>
<stop offset="0.51" stop-color="#40B0C9"/>
<stop offset="0.89" stop-color="#548CE6"/>
<stop offset="1" stop-color="#5B82F0"/>
</linearGradient>
<linearGradient id="paint12_linear_3_17378" x1="66.7151" y1="166.079" x2="79.5051" y2="185.519" gradientUnits="userSpaceOnUse">
<stop stop-color="#EBF1F2"/>
<stop offset="0.08" stop-color="#EEF3F3"/>
<stop offset="0.55" stop-color="#FAFCFC"/>
<stop offset="1" stop-color="white"/>
</linearGradient>
<linearGradient id="paint13_linear_3_17378" x1="66.46" y1="169.17" x2="79.9201" y2="182.62" gradientUnits="userSpaceOnUse">
<stop stop-color="#30CFB0"/>
<stop offset="0.2" stop-color="#34C6B6"/>
<stop offset="0.51" stop-color="#40B0C9"/>
<stop offset="0.89" stop-color="#548CE6"/>
<stop offset="1" stop-color="#5B82F0"/>
</linearGradient>
<clipPath id="clip0_3_17378">
<rect width="188" height="188" fill="white"/>
</clipPath>
</defs>
</svg>
