<svg width="188" height="188" viewBox="0 0 188 188" fill="none" xmlns="http://www.w3.org/2000/svg">
<path d="M95.423 33.8374V75.739" stroke="#09363F" stroke-width="1.7" stroke-miterlimit="10"/>
<path d="M37.2117 141.573L72.01 116.338" stroke="#09363F" stroke-width="1.7" stroke-miterlimit="10"/>
<path d="M150.113 139.629L118.756 116.278" stroke="#09363F" stroke-width="1.7" stroke-miterlimit="10"/>
<path d="M124.373 116.087V89.0481C124.373 87.0337 123.3 85.1596 121.544 84.1574L98.1113 70.6378C96.3658 69.6256 94.2091 69.6256 92.4537 70.6378L69.0207 84.1574C67.2753 85.1696 66.1919 87.0337 66.1919 89.0481V116.087C66.1919 118.102 67.2652 119.976 69.0207 120.978L92.4537 134.497C94.1991 135.51 96.3558 135.51 98.1113 134.497L121.544 120.978C123.29 119.966 124.373 118.102 124.373 116.087Z" fill="url(#paint0_linear_3_17417)"/>
<path d="M119.077 117.21L95.3928 130.88L71.1072 116.869V89.5492L75.5711 92.1148V114.303L95.3928 125.728L114.633 114.634L119.077 117.21Z" fill="url(#paint1_linear_3_17417)"/>
<path d="M119.668 88.8677V116.197L115.214 113.622V91.4333L95.3928 80.0083L76.1528 91.1026L71.699 88.5269L95.3928 74.8671L119.668 88.8677Z" fill="url(#paint2_linear_3_17417)"/>
<path d="M92.3233 93.0468L89.5547 91.4534H89.5447L83.6964 94.8107C83.0544 95.1815 82.6532 95.883 82.6532 96.6247V108.501C82.6532 109.242 83.0544 109.944 83.6964 110.315L85.4318 111.317V97.0155L92.1728 93.127L92.3233 93.0368V93.0468Z" fill="#09363F"/>
<path d="M99.1546 108.14L101.923 106.546H101.933V92.2451L96.0851 88.8777C95.4431 88.5069 94.6406 88.5069 93.9886 88.8777L92.3033 89.8498L92.2632 89.8699L99.1546 93.8486V108.14Z" fill="#09363F"/>
<path d="M90.9289 96.9854L88.1603 98.5789H88.1503V112.88L93.9985 116.247C94.3195 116.428 94.6806 116.528 95.0417 116.528C95.4028 116.528 95.774 116.428 96.085 116.247L97.8204 115.245L90.9289 111.267V96.9653V96.9854Z" fill="#09363F"/>
<path d="M106.387 94.8107L104.652 93.8085V108.11L97.9107 111.998L97.7603 112.088L100.539 113.692L106.377 110.325C107.019 109.954 107.42 109.262 107.42 108.511V96.6246C107.42 95.883 107.019 95.1815 106.377 94.8107H106.387Z" fill="#09363F"/>
<path d="M93.6575 95.412V109.713L95.0418 110.515L96.4261 109.723L96.4361 109.713V95.422L95.0418 94.6202L93.7076 95.3919L93.6575 95.412Z" fill="#09363F"/>
<path d="M161.318 145.231C165.124 145.231 168.21 142.121 168.21 138.286C168.21 134.45 165.124 131.341 161.318 131.341C157.512 131.341 154.427 134.45 154.427 138.286C154.427 142.121 157.512 145.231 161.318 145.231Z" fill="#09363F"/>
<path d="M174.529 156.626V158.871C174.529 159.171 174.288 159.422 173.977 159.422H147.987C147.686 159.422 147.435 159.181 147.435 158.871V156.626C147.435 151.825 151.327 147.937 156.132 147.937H158.66L159.984 150.252L160.756 151.595C161.007 152.026 161.629 152.026 161.88 151.595L162.652 150.252L163.986 147.937H165.842C170.647 147.937 174.539 151.825 174.539 156.626H174.529Z" fill="#09363F"/>
<path d="M26.6487 145.231C30.4547 145.231 33.5401 142.121 33.5401 138.286C33.5401 134.45 30.4547 131.341 26.6487 131.341C22.8426 131.341 19.7572 134.45 19.7572 138.286C19.7572 142.121 22.8426 145.231 26.6487 145.231Z" fill="#09363F"/>
<path d="M39.8598 156.626V158.871C39.8598 159.171 39.6191 159.422 39.3081 159.422H13.3272C13.0263 159.422 12.7755 159.181 12.7755 158.871V156.626C12.7755 151.825 16.6676 147.937 21.4726 147.937H24.0005L25.3246 150.252L26.097 151.595C26.3478 152.026 26.9697 152.026 27.2205 151.595L27.9929 150.252L29.3271 147.937H31.1828C35.9878 147.937 39.8799 151.825 39.8799 156.626H39.8598Z" fill="#09363F"/>
<path d="M95.7539 16.8904C99.5599 16.8904 102.645 13.7809 102.645 9.94518C102.645 6.10946 99.5599 3 95.7539 3C91.9478 3 88.8624 6.10946 88.8624 9.94518C88.8624 13.7809 91.9478 16.8904 95.7539 16.8904Z" fill="#09363F"/>
<path d="M108.965 28.2853V30.5302C108.965 30.8309 108.724 31.0814 108.413 31.0814H82.4223C82.1214 31.0814 81.8706 30.8409 81.8706 30.5302V28.2853C81.8706 23.4848 85.7627 19.5963 90.5677 19.5963H93.0956L94.4197 21.9114L95.1921 23.2543C95.4429 23.6853 96.0648 23.6853 96.3156 23.2543L97.088 21.9114L98.4221 19.5963H100.278C105.083 19.5963 108.975 23.4848 108.975 28.2853H108.965Z" fill="#09363F"/>
<path d="M173.456 129.827L171.56 129.176C171.981 127.963 172.372 126.72 172.734 125.498L174.66 126.059C174.288 127.312 173.887 128.584 173.456 129.827ZM175.934 121.148L173.977 120.707C174.339 119.104 174.66 117.47 174.93 115.847L176.907 116.167C176.636 117.831 176.305 119.505 175.934 121.148ZM177.579 111.146L175.582 110.946C175.753 109.312 175.873 107.649 175.934 106.005L177.94 106.085C177.87 107.769 177.749 109.473 177.579 111.146ZM175.994 101.054C175.964 99.4107 175.883 97.7471 175.753 96.1135L177.749 95.9531C177.88 97.6268 177.96 99.3305 177.99 101.014L175.984 101.054H175.994ZM175.221 91.1927C174.991 89.5692 174.71 87.9256 174.389 86.3121L176.355 85.9112C176.686 87.5548 176.977 89.2385 177.208 90.9121L175.221 91.1927ZM173.255 81.5016C172.834 79.9181 172.352 78.3246 171.831 76.7612L173.737 76.1298C174.268 77.7233 174.76 79.3569 175.191 80.9904L173.255 81.5116V81.5016ZM170.125 72.1211C169.514 70.5977 168.841 69.0744 168.139 67.5912L169.955 66.7293C170.677 68.2426 171.359 69.806 171.991 71.3694L170.136 72.1211H170.125ZM165.872 63.2016C165.08 61.7584 164.227 60.3353 163.344 58.9523L165.04 57.8799C165.942 59.293 166.815 60.7662 167.628 62.2395L165.872 63.2116V63.2016ZM160.566 54.8533C159.603 53.5204 158.59 52.2075 157.536 50.9347L159.091 49.662C160.164 50.9648 161.208 52.3178 162.191 53.6707L160.566 54.8433V54.8533ZM154.286 47.2066C153.173 46.004 151.999 44.8214 150.805 43.6789L152.19 42.2257C153.403 43.3883 154.607 44.6009 155.751 45.8336L154.276 47.1966L154.286 47.2066ZM147.124 40.3717C145.87 39.3093 144.566 38.2771 143.242 37.2949L144.446 35.6914C145.8 36.6936 147.134 37.7559 148.418 38.8483L147.124 40.3817V40.3717ZM139.189 34.4487C137.815 33.5467 136.39 32.6748 134.966 31.8631L135.959 30.1192C137.424 30.9511 138.878 31.853 140.283 32.7751L139.179 34.4487H139.189ZM130.592 29.528C129.118 28.7964 127.603 28.1048 126.088 27.4735L126.871 25.6294C128.426 26.2809 129.98 26.9924 131.495 27.734L130.602 29.528H130.592ZM121.464 25.6896C119.909 25.1484 118.324 24.6473 116.739 24.1963L117.281 22.2721C118.906 22.7331 120.531 23.2442 122.126 23.8054L121.464 25.6996V25.6896Z" fill="url(#paint3_linear_3_17417)"/>
<path d="M15.2834 129.056C14.7517 127.462 14.2602 125.828 13.8188 124.195L15.7548 123.674C16.1761 125.257 16.6576 126.851 17.1793 128.414L15.2733 129.045L15.2834 129.056ZM12.6552 119.264C12.3241 117.61 12.0332 115.937 11.7925 114.263L13.7787 113.983C14.0094 115.606 14.2903 117.25 14.6113 118.863L12.6451 119.264H12.6552ZM11.2408 109.222C11.1104 107.549 11.0301 105.845 10.99 104.161L12.9962 104.121C13.0263 105.765 13.1066 107.428 13.237 109.062L11.2408 109.222ZM13.0564 99.1702L11.0502 99.09C11.1204 97.4063 11.2408 95.7026 11.4113 94.029L13.4075 94.2294C13.237 95.863 13.1266 97.5166 13.0564 99.1602V99.1702ZM14.0595 89.3287L12.0834 89.008C12.3542 87.3443 12.6853 85.6707 13.0564 84.0271L15.0125 84.4681C14.6514 86.0716 14.3304 87.7051 14.0696 89.3287H14.0595ZM16.2464 79.6876L14.3204 79.1264C14.7918 77.5028 15.3235 75.8793 15.8953 74.2958L17.7811 74.9773C17.2294 76.5207 16.7078 78.1041 16.2464 79.6876ZM19.6068 70.3672L17.7611 69.5755C18.4231 68.0321 19.1554 66.4787 19.9178 64.9754L21.7134 65.8774C20.9711 67.3506 20.2689 68.8539 19.6169 70.3672H19.6068ZM24.0808 61.5279L22.3453 60.5157C23.198 59.0625 24.1008 57.6194 25.0438 56.2163L26.7089 57.3287C25.7961 58.7017 24.9033 60.1048 24.0808 61.5279ZM29.5879 53.2999L27.9929 52.0873C29.0061 50.7544 30.0895 49.4214 31.1829 48.1487L32.7076 49.4515C31.6343 50.7043 30.581 51.9971 29.5879 53.2999ZM36.048 45.8035L34.6136 44.4105C35.7872 43.2079 37.011 42.0153 38.2549 40.8828L39.6091 42.366C38.3953 43.4684 37.2016 44.631 36.048 45.8136V45.8035ZM43.3708 39.139L42.1069 37.5756C43.421 36.5233 44.7752 35.491 46.1495 34.5189L47.3131 36.1524C45.9789 37.1045 44.6448 38.1067 43.3708 39.139ZM51.4359 33.4064L50.3726 31.7027C51.7971 30.8108 53.2716 29.9589 54.7563 29.1572L55.7092 30.921C54.2647 31.7027 52.8202 32.5446 51.4359 33.4064ZM60.133 28.6961L59.2904 26.8822C60.8151 26.1706 62.38 25.4992 63.9549 24.8878L64.6872 26.7519C63.1624 27.3532 61.6277 28.0046 60.143 28.6961H60.133ZM69.3317 25.0782L68.7097 23.1741C70.3147 22.6529 71.9498 22.1819 73.5849 21.761L74.0865 23.7052C72.4915 24.1161 70.8965 24.5771 69.3317 25.0883V25.0782Z" fill="url(#paint4_linear_3_17417)"/>
<path d="M95.0216 186V183.996C96.6567 183.986 98.3219 183.925 99.957 183.815L100.087 185.82C98.4121 185.93 96.7068 185.99 95.0216 186ZM89.9458 185.88C88.2605 185.789 86.5552 185.649 84.89 185.459L85.1208 183.464C86.7559 183.655 88.411 183.795 90.0561 183.875L89.9458 185.88ZM105.143 185.328L104.892 183.344C106.527 183.134 108.173 182.873 109.778 182.572L110.149 184.537C108.494 184.847 106.808 185.118 105.143 185.328ZM79.8644 184.727C78.1992 184.437 76.534 184.086 74.8889 183.695L75.3604 181.751C76.9553 182.131 78.5904 182.472 80.2155 182.763L79.8644 184.737V184.727ZM115.104 183.444L114.613 181.5C116.208 181.099 117.803 180.638 119.367 180.137L119.979 182.041C118.374 182.552 116.729 183.023 115.104 183.434V183.444ZM69.9937 182.352C68.3786 181.861 66.7636 181.31 65.1887 180.718L65.8909 178.844C67.4357 179.426 69.0106 179.957 70.5855 180.438L69.9937 182.352ZM124.764 180.358L124.042 178.494C125.577 177.902 127.101 177.251 128.596 176.559L129.439 178.383C127.904 179.085 126.339 179.756 124.764 180.368V180.358ZM60.484 178.794C58.9493 178.113 57.4045 177.361 55.9098 176.589L56.8327 174.815C58.2872 175.577 59.7919 176.299 61.2966 176.97L60.474 178.804L60.484 178.794ZM133.973 176.108L133.02 174.344C134.464 173.563 135.909 172.731 137.313 171.869L138.367 173.573C136.932 174.455 135.457 175.307 133.973 176.108ZM51.486 174.104C50.0415 173.232 48.6071 172.31 47.2228 171.358L48.3563 169.704C49.7105 170.636 51.1149 171.538 52.5192 172.38L51.486 174.094V174.104ZM142.6 170.777L141.446 169.143C142.79 168.191 144.124 167.199 145.408 166.167L146.662 167.73C145.348 168.782 143.984 169.805 142.61 170.777H142.6ZM43.12 168.361C42.5683 167.93 42.0165 167.489 41.4749 167.038L42.7488 165.485C43.2805 165.926 43.8121 166.347 44.3638 166.778L43.13 168.361H43.12Z" fill="url(#paint5_linear_3_17417)"/>
<path d="M73.8558 25.7397C75.5178 25.7397 76.8652 24.3936 76.8652 22.7331C76.8652 21.0727 75.5178 19.7266 73.8558 19.7266C72.1938 19.7266 70.8464 21.0727 70.8464 22.7331C70.8464 24.3936 72.1938 25.7397 73.8558 25.7397Z" fill="#30CFB0"/>
<path d="M172.152 132.182C173.814 132.182 175.161 130.836 175.161 129.176C175.161 127.515 173.814 126.169 172.152 126.169C170.49 126.169 169.142 127.515 169.142 129.176C169.142 130.836 170.49 132.182 172.152 132.182Z" fill="#30CFB0"/>
<path d="M42.1169 169.273C43.7789 169.273 45.1263 167.927 45.1263 166.267C45.1263 164.606 43.7789 163.26 42.1169 163.26C40.4549 163.26 39.1075 164.606 39.1075 166.267C39.1075 167.927 40.4549 169.273 42.1169 169.273Z" fill="#30CFB0"/>
<path d="M53.2716 126.199H41.2341V140.631H53.2716V126.199Z" fill="white" stroke="#30CFB0" stroke-width="2" stroke-linejoin="bevel"/>
<path d="M44.4742 131.351H50.0215" stroke="#30CFB0" stroke-width="2" stroke-linejoin="bevel"/>
<defs>
<linearGradient id="paint0_linear_3_17417" x1="79.9447" y1="78.024" x2="110.369" y2="126.806" gradientUnits="userSpaceOnUse">
<stop stop-color="#EBF1F2"/>
<stop offset="0.11" stop-color="#F0F4F5"/>
<stop offset="0.44" stop-color="#FBFCFC"/>
<stop offset="0.81" stop-color="white"/>
</linearGradient>
<linearGradient id="paint1_linear_3_17417" x1="73.9661" y1="82.9147" x2="102.416" y2="128.949" gradientUnits="userSpaceOnUse">
<stop stop-color="#30CFB0"/>
<stop offset="0.22" stop-color="#36C6B6"/>
<stop offset="0.56" stop-color="#49B0C7"/>
<stop offset="0.98" stop-color="#688CE4"/>
<stop offset="1" stop-color="#6A8BE6"/>
</linearGradient>
<linearGradient id="paint2_linear_3_17417" x1="87.0869" y1="74.817" x2="115.527" y2="120.851" gradientUnits="userSpaceOnUse">
<stop stop-color="#30CFB0"/>
<stop offset="0.22" stop-color="#36C6B6"/>
<stop offset="0.56" stop-color="#49B0C7"/>
<stop offset="0.98" stop-color="#688CE4"/>
<stop offset="1" stop-color="#6A8BE6"/>
</linearGradient>
<linearGradient id="paint3_linear_3_17417" x1="128.566" y1="16.5195" x2="183.616" y2="124.657" gradientUnits="userSpaceOnUse">
<stop stop-color="#6A8BE6" stop-opacity="0"/>
<stop offset="0.1" stop-color="#6293DF" stop-opacity="0.13"/>
<stop offset="0.34" stop-color="#50A8CE" stop-opacity="0.44"/>
<stop offset="0.56" stop-color="#42B9C1" stop-opacity="0.68"/>
<stop offset="0.75" stop-color="#38C5B7" stop-opacity="0.85"/>
<stop offset="0.9" stop-color="#32CCB2" stop-opacity="0.96"/>
<stop offset="1" stop-color="#30CFB0"/>
</linearGradient>
<linearGradient id="paint4_linear_3_17417" x1="0.146228" y1="115.917" x2="78.337" y2="25.8881" gradientUnits="userSpaceOnUse">
<stop stop-color="#6A8BE6" stop-opacity="0"/>
<stop offset="0.1" stop-color="#6293DF" stop-opacity="0.13"/>
<stop offset="0.34" stop-color="#50A8CE" stop-opacity="0.44"/>
<stop offset="0.56" stop-color="#42B9C1" stop-opacity="0.68"/>
<stop offset="0.75" stop-color="#38C5B7" stop-opacity="0.85"/>
<stop offset="0.9" stop-color="#32CCB2" stop-opacity="0.96"/>
<stop offset="1" stop-color="#30CFB0"/>
</linearGradient>
<linearGradient id="paint5_linear_3_17417" x1="41.4849" y1="175.748" x2="146.662" y2="175.748" gradientUnits="userSpaceOnUse">
<stop stop-color="#30CFB0"/>
<stop offset="0.1" stop-color="#32CCB2" stop-opacity="0.96"/>
<stop offset="0.25" stop-color="#38C5B7" stop-opacity="0.85"/>
<stop offset="0.44" stop-color="#42B9C1" stop-opacity="0.68"/>
<stop offset="0.66" stop-color="#50A8CE" stop-opacity="0.44"/>
<stop offset="0.9" stop-color="#6293DF" stop-opacity="0.13"/>
<stop offset="1" stop-color="#6A8BE6" stop-opacity="0"/>
</linearGradient>
</defs>
</svg>
