<svg width="34" height="34" viewBox="0 0 34 34" fill="none" xmlns="http://www.w3.org/2000/svg">
<g id="Isolation_Mode" clip-path="url(#clip0_3_94201)">
<path id="Vector" d="M30 0H4C1.79086 0 0 1.79086 0 4V30C0 32.2091 1.79086 34 4 34H30C32.2091 34 34 32.2091 34 30V4C34 1.79086 32.2091 0 30 0Z" fill="#E8F7F5"/>
<g id="Group">
<path id="Vector_2" d="M26.58 26.5599H8.07999L7.35999 25.8399V7.43994H8.79999V25.1199H26.58V26.5599Z" fill="#09363F"/>
<path id="Vector_3" d="M13.62 19.8799H12.18V23.7899H13.62V19.8799Z" fill="#09363F"/>
<path id="Vector_4" d="M18.43 18.01H16.99V23.79H18.43V18.01Z" fill="#09363F"/>
<path id="Vector_5" d="M23.25 16.1399H21.81V23.7899H23.25V16.1399Z" fill="#09363F"/>
<path id="Vector_6" d="M26.64 12.5999H25.2V8.87994H21.19V7.43994H25.92L26.64 8.15994V12.5999Z" fill="#09363F"/>
<path id="Vector_7" d="M11.35 18.0099L10.34 16.9899L15.75 11.5799H16.77L19.12 13.9399L25.41 7.6499L26.43 8.6699L19.63 15.4599H18.62L16.26 13.0999L11.35 18.0099Z" fill="#09363F"/>
</g>
</g>
<defs>
<clipPath id="clip0_3_94201">
<rect width="34" height="34" fill="white"/>
</clipPath>
</defs>
</svg>
