<svg width="34" height="34" viewBox="0 0 34 34" fill="none" xmlns="http://www.w3.org/2000/svg">
<g id="_&#208;&#160;&#208;&#142;&#208;&#160;&#194;&#187;&#208;&#160;&#209;&#149;&#208;&#160;&#226;&#132;&#150;_1" clip-path="url(#clip0_3_94256)">
<path id="Vector" d="M30 0H4C1.79086 0 0 1.79086 0 4V30C0 32.2091 1.79086 34 4 34H30C32.2091 34 34 32.2091 34 30V4C34 1.79086 32.2091 0 30 0Z" fill="#E8E8F7"/>
<g id="Group">
<path id="Vector_2" d="M24.37 10.98L17 6.72998L8.09998 11.86V22.14L17 27.27L25.9 22.14V15.76" stroke="#09363F" stroke-width="1.36" stroke-linejoin="bevel"/>
<g id="Group_2">
<path id="Vector_3" d="M20.0299 15.7601C19.0899 15.7601 18.3199 15.0001 18.3199 14.0501C18.3199 13.1101 19.0799 12.3401 20.0299 12.3401C20.9699 12.3401 21.7399 13.1001 21.7399 14.0501C21.7399 14.9901 20.9799 15.7601 20.0299 15.7601Z" stroke="#09363F" stroke-width="1.36" stroke-linejoin="bevel"/>
<path id="Vector_4" d="M21.7299 18.24H18.3199V21.65H21.7299V18.24Z" stroke="#09363F" stroke-width="1.36" stroke-linejoin="bevel"/>
<path id="Vector_5" d="M15.68 12.3401H12.27V15.7501H15.68V12.3401Z" stroke="#09363F" stroke-width="1.36" stroke-linejoin="bevel"/>
<path id="Vector_6" d="M13.9699 21.66C13.0299 21.66 12.2599 20.9 12.2599 19.95C12.2599 19.01 13.0199 18.24 13.9699 18.24C14.9099 18.24 15.6799 19 15.6799 19.95C15.6799 20.89 14.9199 21.66 13.9699 21.66Z" stroke="#09363F" stroke-width="1.36" stroke-linejoin="bevel"/>
</g>
</g>
</g>
<defs>
<clipPath id="clip0_3_94256">
<rect width="34" height="34" fill="white"/>
</clipPath>
</defs>
</svg>
