<svg width="34" height="34" viewBox="0 0 34 34" fill="none" xmlns="http://www.w3.org/2000/svg">
<g id="_&#208;&#160;&#208;&#142;&#208;&#160;&#194;&#187;&#208;&#160;&#209;&#149;&#208;&#160;&#226;&#132;&#150;_1" clip-path="url(#clip0_3_94265)">
<path id="Vector" d="M30 0H4C1.79086 0 0 1.79086 0 4V30C0 32.2091 1.79086 34 4 34H30C32.2091 34 34 32.2091 34 30V4C34 1.79086 32.2091 0 30 0Z" fill="#E8F7F5"/>
<g id="Group">
<path id="Vector_2" d="M17.52 22.48V26.56" stroke="#09363F" stroke-width="1.36" stroke-linejoin="bevel"/>
<path id="Vector_3" d="M21.23 20.3499V26.5599" stroke="#09363F" stroke-width="1.36" stroke-linejoin="bevel"/>
<path id="Vector_4" d="M24.95 17V26.56" stroke="#09363F" stroke-width="1.36" stroke-linejoin="bevel"/>
<path id="Vector_5" d="M18.67 20.49V19.33C18.67 17.74 17.38 16.45 15.79 16.45H11.92C10.33 16.45 9.03998 17.74 9.03998 19.33V24.52" stroke="#09363F" stroke-width="1.36" stroke-linejoin="bevel"/>
<path id="Vector_6" d="M13.86 14.2399C15.7377 14.2399 17.26 12.7177 17.26 10.8399C17.26 8.96217 15.7377 7.43994 13.86 7.43994C11.9822 7.43994 10.46 8.96217 10.46 10.8399C10.46 12.7177 11.9822 14.2399 13.86 14.2399Z" stroke="#09363F" stroke-width="1.36" stroke-linejoin="bevel"/>
</g>
</g>
<defs>
<clipPath id="clip0_3_94265">
<rect width="34" height="34" fill="white"/>
</clipPath>
</defs>
</svg>
