<svg width="34" height="34" viewBox="0 0 34 34" fill="none" xmlns="http://www.w3.org/2000/svg">
<g id="_&#208;&#160;&#208;&#142;&#208;&#160;&#194;&#187;&#208;&#160;&#209;&#149;&#208;&#160;&#226;&#132;&#150;_1" clip-path="url(#clip0_3_94292)">
<path id="Vector" d="M30 0H4C1.79086 0 0 1.79086 0 4V30C0 32.2091 1.79086 34 4 34H30C32.2091 34 34 32.2091 34 30V4C34 1.79086 32.2091 0 30 0Z" fill="#E8F7F5"/>
<g id="Group">
<path id="Vector_2" d="M6.73999 25.8599H25.86" stroke="#09363F" stroke-width="1.36" stroke-linejoin="bevel"/>
<path id="Vector_3" d="M17.07 11.4899C17.07 9.63989 15.57 8.13989 13.72 8.13989C11.87 8.13989 10.37 9.63989 10.37 11.4899C10.37 13.3399 11.87 14.8399 13.72 14.8399C15.57 14.8399 17.07 13.3399 17.07 11.4899Z" stroke="#09363F" stroke-width="1.36" stroke-linejoin="bevel"/>
<path id="Vector_4" d="M18.69 22.71V20.93C18.69 19.29 17.36 17.96 15.72 17.96H11.85C10.21 17.96 8.88 19.29 8.88 20.93V22.71" stroke="#09363F" stroke-width="1.36" stroke-linejoin="bevel"/>
<path id="Vector_5" d="M21.8 8.16992H27.37V13.7399" stroke="#09363F" stroke-width="1.36" stroke-linejoin="bevel"/>
<path id="Vector_6" d="M27.37 8.16992L20.89 14.6499" stroke="#09363F" stroke-width="1.36" stroke-linejoin="bevel"/>
</g>
</g>
<defs>
<clipPath id="clip0_3_94292">
<rect width="34" height="34" fill="white"/>
</clipPath>
</defs>
</svg>
