<svg width="34" height="34" viewBox="0 0 34 34" fill="none" xmlns="http://www.w3.org/2000/svg">
<g id="_&#208;&#160;&#208;&#142;&#208;&#160;&#194;&#187;&#208;&#160;&#209;&#149;&#208;&#160;&#226;&#132;&#150;_1" clip-path="url(#clip0_3_94273)">
<path id="Vector" d="M30 0H4C1.79086 0 0 1.79086 0 4V30C0 32.2091 1.79086 34 4 34H30C32.2091 34 34 32.2091 34 30V4C34 1.79086 32.2091 0 30 0Z" fill="#F7F3E3"/>
<g id="Group">
<path id="Vector_2" d="M7.71002 12.1401V22.3701L15.68 26.9701" stroke="#09363F" stroke-width="1.36" stroke-linejoin="bevel"/>
<path id="Vector_3" d="M10.63 9.95996V17.26" stroke="#09363F" stroke-width="1.36" stroke-linejoin="bevel"/>
<path id="Vector_4" d="M25.42 16.34V12.14L16.56 7.03003L13.63 8.72003V14.98" stroke="#09363F" stroke-width="1.36" stroke-linejoin="bevel"/>
<path id="Vector_5" d="M25.6 19.6201L18.47 26.7501" stroke="#09363F" stroke-linejoin="bevel"/>
<path id="Vector_6" d="M20.77 20.83C20.77 21.69 20.07 22.39 19.21 22.39C18.35 22.39 17.65 21.69 17.65 20.83C17.65 19.97 18.35 19.27 19.21 19.27C20.07 19.27 20.77 19.97 20.77 20.83Z" stroke="#09363F" stroke-width="1.36" stroke-linejoin="bevel"/>
<path id="Vector_7" d="M26.4 25.4101C26.4 26.2701 25.7 26.9701 24.84 26.9701C23.98 26.9701 23.28 26.2701 23.28 25.4101C23.28 24.5501 23.98 23.8501 24.84 23.8501C25.7 23.8501 26.4 24.5501 26.4 25.4101Z" stroke="#09363F" stroke-width="1.36" stroke-linejoin="bevel"/>
</g>
</g>
<defs>
<clipPath id="clip0_3_94273">
<rect width="34" height="34" fill="white"/>
</clipPath>
</defs>
</svg>
