<svg width="34" height="34" viewBox="0 0 34 34" fill="none" xmlns="http://www.w3.org/2000/svg">
<g id="_&#208;&#160;&#208;&#142;&#208;&#160;&#194;&#187;&#208;&#160;&#209;&#149;&#208;&#160;&#226;&#132;&#150;_1" clip-path="url(#clip0_3_94231)">
<path id="Vector" d="M30 0H4C1.79086 0 0 1.79086 0 4V30C0 32.2091 1.79086 34 4 34H30C32.2091 34 34 32.2091 34 30V4C34 1.79086 32.2091 0 30 0Z" fill="#E8E8F7"/>
<g id="Group">
<path id="Vector_2" d="M18.05 25.7701H8.48999V19.8101" stroke="#09363F" stroke-width="1.36" stroke-linejoin="bevel"/>
<path id="Vector_3" d="M16.68 8.29004H25.97V14.04" stroke="#09363F" stroke-width="1.36" stroke-linejoin="bevel"/>
<path id="Vector_4" d="M27.48 17.0298H21.34V27.0698H27.48V17.0298Z" stroke="#09363F" stroke-width="1.36" stroke-linejoin="bevel"/>
<path id="Vector_5" d="M6.69 17.8298V16.0498C6.69 15.1098 7.46 14.3398 8.4 14.3398H13.2C14.14 14.3398 14.91 15.1098 14.91 16.0498V17.8298" stroke="#09363F" stroke-width="1.36" stroke-linejoin="bevel"/>
<path id="Vector_6" d="M13.26 9.39993C13.26 10.7599 12.16 11.8699 10.79 11.8699C9.42001 11.8699 8.32001 10.7699 8.32001 9.39993C8.32001 8.02993 9.42001 6.92993 10.79 6.92993C12.16 6.92993 13.26 8.02993 13.26 9.39993Z" stroke="#09363F" stroke-width="1.36" stroke-linejoin="bevel"/>
</g>
</g>
<defs>
<clipPath id="clip0_3_94231">
<rect width="34" height="34" fill="white"/>
</clipPath>
</defs>
</svg>
