<svg width="34" height="34" viewBox="0 0 34 34" fill="none" xmlns="http://www.w3.org/2000/svg">
<g id="_&#208;&#160;&#208;&#142;&#208;&#160;&#194;&#187;&#208;&#160;&#209;&#149;&#208;&#160;&#226;&#132;&#150;_1" clip-path="url(#clip0_3_94239)">
<path id="Vector" d="M30 0H4C1.79086 0 0 1.79086 0 4V30C0 32.2091 1.79086 34 4 34H30C32.2091 34 34 32.2091 34 30V4C34 1.79086 32.2091 0 30 0Z" fill="#F7F3E3"/>
<g id="Group">
<path id="Vector_2" d="M24.02 12.2102V10.1602L16.28 6.2002L8.53998 10.1602V19.4802C8.53998 23.7502 12 27.2202 16.28 27.2202C18.57 27.2202 20.62 26.2302 22.04 24.6502" stroke="#09363F" stroke-width="1.36" stroke-linejoin="bevel"/>
<g id="Group_2">
<path id="Vector_3" d="M23.7 18.1704C24.6665 18.1704 25.45 17.3869 25.45 16.4204C25.45 15.4539 24.6665 14.6704 23.7 14.6704C22.7335 14.6704 21.95 15.4539 21.95 16.4204C21.95 17.3869 22.7335 18.1704 23.7 18.1704Z" stroke="#09363F" stroke-width="1.36" stroke-linejoin="bevel"/>
<path id="Vector_4" d="M21.95 16.4204H15.13" stroke="#09363F" stroke-width="1.36" stroke-linejoin="bevel"/>
</g>
<g id="Group_3">
<path id="Vector_5" d="M15.13 21.96C15.13 20.99 15.91 20.21 16.88 20.21C17.85 20.21 18.63 20.99 18.63 21.96C18.63 22.93 17.85 23.71 16.88 23.71C15.91 23.71 15.13 22.93 15.13 21.96Z" stroke="#09363F" stroke-width="1.36" stroke-linejoin="bevel"/>
<path id="Vector_6" d="M18.63 21.96H25.45" stroke="#09363F" stroke-width="1.36" stroke-linejoin="bevel"/>
</g>
</g>
</g>
<defs>
<clipPath id="clip0_3_94239">
<rect width="34" height="34" fill="white"/>
</clipPath>
</defs>
</svg>
